<svg fill="#C02424" xmlns="http://www.w3.org/2000/svg" viewBox="0 0 48 48"><title>iStock-951865160 [Converted]</title><g id="icon"><path d="M42,37.75a.76.76,0,0,1-.75-.75V29a.75.75,0,0,1,1.5,0v8A.76.76,0,0,1,42,37.75Z"/><path d="M6,37.75A.76.76,0,0,1,5.25,37V17.64a3.39,3.39,0,0,1,3.39-3.39H16a.75.75,0,0,1,0,1.5H8.64a1.89,1.89,0,0,0-1.89,1.89V37A.76.76,0,0,1,6,37.75Z"/><path d="M38,37.75a.76.76,0,0,1-.75-.75V30a.75.75,0,0,1,1.5,0v7A.76.76,0,0,1,38,37.75Z"/><path d="M10,37.75A.76.76,0,0,1,9.25,37V19.91a1.67,1.67,0,0,1,1.66-1.66H18a.75.75,0,0,1,0,1.5H10.91a.16.16,0,0,0-.16.16V37A.76.76,0,0,1,10,37.75Z"/><path d="M42.64,43.75H5.36a3.12,3.12,0,0,1-3.11-3.11V37A.76.76,0,0,1,3,36.25H45a.76.76,0,0,1,.75.75v3.64A3.12,3.12,0,0,1,42.64,43.75Zm-38.89-6v2.89a1.61,1.61,0,0,0,1.61,1.61H42.64a1.61,1.61,0,0,0,1.61-1.61V37.75Z"/><path d="M31,19.75A1.75,1.75,0,1,1,32.75,18,1.76,1.76,0,0,1,31,19.75Zm0-2a.25.25,0,0,0-.25.25c0,.28.5.28.5,0A.25.25,0,0,0,31,17.75Z"/><path d="M31,31.32c-3.5,0-5.39-7-5.39-13.53a32.08,32.08,0,0,1,.72-6.94.75.75,0,1,1,1.46.33,30.3,30.3,0,0,0-.68,6.61c0,6.88,2.05,12,3.89,12s3.89-5.15,3.89-12-2-12-3.89-12c-.69,0-1.46.78-2.11,2.14a.75.75,0,1,1-1.35-.66c1.19-2.46,2.54-3,3.46-3,3.5,0,5.39,7,5.39,13.54S34.5,31.32,31,31.32Z"/><path d="M23,27.11A3.35,3.35,0,0,1,20.23,26c-2.12-2.79,2.28-8.52,7.5-12.5s11.91-6.69,14-3.91c1,1.26.62,3.3-1,5.75a28.21,28.21,0,0,1-6.54,6.75c-.85.65-1.73,1.26-2.61,1.81a.75.75,0,0,1-.8-1.27c.84-.53,1.68-1.11,2.5-1.74a26.63,26.63,0,0,0,6.19-6.36c1.17-1.83,1.56-3.33,1-4-1.11-1.46-6.45,0-11.93,4.2s-8.33,8.93-7.21,10.39c.62.82,3,.85,6.87-1A.75.75,0,1,1,29,25.4,14.21,14.21,0,0,1,23,27.11Z"/><path d="M39.12,26.45a11.24,11.24,0,0,1-2.43-.3,28.11,28.11,0,0,1-8.59-3.82A28.18,28.18,0,0,1,21,16.15c-1.77-2.31-2.28-4.32-1.43-5.65,1.89-2.95,8.78-.79,14.31,2.74a33.41,33.41,0,0,1,4.7,3.6.76.76,0,0,1,0,1.06.75.75,0,0,1-1.06,0A31.65,31.65,0,0,0,33.1,14.5c-5.81-3.7-11.26-4.74-12.24-3.19-.48.74,0,2.2,1.35,3.92a26.76,26.76,0,0,0,6.69,5.84A26.74,26.74,0,0,0,37,24.69c2.11.47,3.65.31,4.12-.43s-.08-2.33-1.49-4.1a.75.75,0,0,1,.13-1.05.74.74,0,0,1,1,.12c1.89,2.39,2.46,4.47,1.58,5.84A3.66,3.66,0,0,1,39.12,26.45Z"/><path d="M30,40.75H19a.75.75,0,0,1,0-1.5H30a.75.75,0,0,1,0,1.5Z"/></g></svg>