<svg fill="#C02424" xmlns="http://www.w3.org/2000/svg" viewBox="0 0 48 48"><title>iStock-951868844 [Converted]</title><g id="icon"><path d="M45,40.75H3A.76.76,0,0,1,2.25,40V12A.76.76,0,0,1,3,11.25H5a.75.75,0,0,1,0,1.5H3.75v26.5h40.5V12.75H43a.75.75,0,0,1,0-1.5h2a.76.76,0,0,1,.75.75V40A.76.76,0,0,1,45,40.75Z"/><path d="M24,37.75a.76.76,0,0,1-.75-.75V11A3.75,3.75,0,0,1,27,7.25H41a.76.76,0,0,1,.75.75V34a.76.76,0,0,1-.75.75H27A2.25,2.25,0,0,0,24.75,37,.76.76,0,0,1,24,37.75Zm3-29A2.25,2.25,0,0,0,24.75,11V34A3.76,3.76,0,0,1,27,33.25H40.25V8.75Z"/><path d="M24,37.75a.76.76,0,0,1-.75-.75A2.25,2.25,0,0,0,21,34.75H7A.76.76,0,0,1,6.25,34V8A.76.76,0,0,1,7,7.25H21A3.75,3.75,0,0,1,24.75,11V37A.76.76,0,0,1,24,37.75ZM7.75,33.25H21a3.76,3.76,0,0,1,2.25.75V11A2.25,2.25,0,0,0,21,8.75H7.75Z"/><path d="M20,19.75H11a.75.75,0,0,1,0-1.5h9a.75.75,0,0,1,0,1.5Z"/><path d="M20,15.75H11a.75.75,0,0,1,0-1.5h9a.75.75,0,0,1,0,1.5Z"/><path d="M17,28.75H11a.75.75,0,0,1,0-1.5h6a.75.75,0,0,1,0,1.5Z"/><path d="M20,23.75H11a.75.75,0,0,1,0-1.5h9a.75.75,0,0,1,0,1.5Z"/><path d="M37,19.75H28a.75.75,0,0,1,0-1.5h9a.75.75,0,0,1,0,1.5Z"/><path d="M37,15.75H28a.75.75,0,0,1,0-1.5h9a.75.75,0,0,1,0,1.5Z"/><path d="M37,28.75H28a.75.75,0,0,1,0-1.5h9a.75.75,0,0,1,0,1.5Z"/><path d="M37,23.75H28a.75.75,0,0,1,0-1.5h9a.75.75,0,0,1,0,1.5Z"/></g></svg>