<svg fill="#C02424" xmlns="http://www.w3.org/2000/svg" viewBox="0 0 48 48"><title>iStock-953869598 [Converted]</title><g id="icon"><path d="M30,14.75a.76.76,0,0,1-.75-.75V11.38a1.63,1.63,0,0,0-1.63-1.63H20.38a1.63,1.63,0,0,0-1.63,1.63V14a.75.75,0,0,1-1.5,0V11.38a3.14,3.14,0,0,1,3.13-3.13h7.24a3.14,3.14,0,0,1,3.13,3.13V14A.76.76,0,0,1,30,14.75Z"/><path d="M38.94,39.75H9.06a3.82,3.82,0,0,1-3.81-3.81V17.06a3.82,3.82,0,0,1,3.81-3.81H38.94a3.82,3.82,0,0,1,3.81,3.81V35.94A3.82,3.82,0,0,1,38.94,39.75Zm-29.88-25a2.32,2.32,0,0,0-2.31,2.31V35.94a2.32,2.32,0,0,0,2.31,2.31H38.94a2.32,2.32,0,0,0,2.31-2.31V17.06a2.32,2.32,0,0,0-2.31-2.31Z"/><path d="M28,26.75H20a.75.75,0,0,1,0-1.5h8a.75.75,0,0,1,0,1.5Z"/><path d="M37.21,26.75H35a.75.75,0,0,1,0-1.5h2.21a4,4,0,0,0,4-4V20a.75.75,0,0,1,1.5,0v1.21A5.55,5.55,0,0,1,37.21,26.75Z"/><path d="M13,26.75H10.79a5.55,5.55,0,0,1-5.54-5.54V20a.75.75,0,0,1,1.5,0v1.21a4,4,0,0,0,4,4H13a.75.75,0,0,1,0,1.5Z"/><path d="M18,29.75H15a.76.76,0,0,1-.75-.75V23a.76.76,0,0,1,.75-.75h3a.76.76,0,0,1,.75.75v6A.76.76,0,0,1,18,29.75Zm-2.25-1.5h1.5v-4.5h-1.5Z"/><path d="M33,29.75H30a.76.76,0,0,1-.75-.75V23a.76.76,0,0,1,.75-.75h3a.76.76,0,0,1,.75.75v6A.76.76,0,0,1,33,29.75Zm-2.25-1.5h1.5v-4.5h-1.5Z"/></g></svg>