<svg fill="#C02424" xmlns="http://www.w3.org/2000/svg" viewBox="0 0 48 48"><title>iStock-951864038 [Converted]</title><g id="icon"><path d="M20,32.75A11.81,11.81,0,0,1,9,25.14a.75.75,0,0,1,1.4-.53,10.26,10.26,0,0,0,19.84-3.12.77.77,0,0,1,.78-.71.75.75,0,0,1,.72.78A11.74,11.74,0,0,1,20,32.75Z"/><path d="M9,21.66H9a.76.76,0,0,1-.74-.76,11.76,11.76,0,0,1,16-10.85.75.75,0,0,1-.54,1.4,10.26,10.26,0,0,0-14,9.46A.75.75,0,0,1,9,21.66Z"/><path d="M24,41.75a.76.76,0,0,1-.75-.75V36.75h-6.5V41a.75.75,0,0,1-1.5,0V36a.76.76,0,0,1,.75-.75h8a.76.76,0,0,1,.75.75v5A.76.76,0,0,1,24,41.75Z"/><path d="M23,39.75H16a.75.75,0,0,1,0-1.5h7a.75.75,0,0,1,0,1.5Z"/><path d="M18,36.75a.76.76,0,0,1-.75-.75V32a.75.75,0,0,1,1.5,0v4A.76.76,0,0,1,18,36.75Z"/><path d="M22,36.75a.76.76,0,0,1-.75-.75V32a.75.75,0,0,1,1.5,0v4A.76.76,0,0,1,22,36.75Z"/><path d="M21,28.75H19a.74.74,0,0,1-.72-.57l-.23-.9a6.57,6.57,0,0,1-1.13-.47l-.8.48a.74.74,0,0,1-.91-.11l-1.4-1.4a.74.74,0,0,1-.11-.91l.48-.8a6.57,6.57,0,0,1-.47-1.13l-.9-.23a.74.74,0,0,1-.57-.73V20a.74.74,0,0,1,.57-.73l.9-.23a6.57,6.57,0,0,1,.47-1.13l-.48-.8a.74.74,0,0,1,.11-.91l1.4-1.4a.74.74,0,0,1,.91-.11l.8.48a6.57,6.57,0,0,1,1.13-.47l.23-.9a.74.74,0,0,1,.72-.57h2a.74.74,0,0,1,.73.57l.23.9a6.57,6.57,0,0,1,1.13.47l.8-.48a.74.74,0,0,1,.91.11l1.4,1.4a.74.74,0,0,1,.11.91l-.48.8a6.57,6.57,0,0,1,.47,1.13l.9.23a.74.74,0,0,1,.57.73v2a.74.74,0,0,1-.57.73l-.9.23a6.57,6.57,0,0,1-.47,1.13l.48.8a.74.74,0,0,1-.11.91l-1.4,1.4a.74.74,0,0,1-.91.11l-.8-.48a6.57,6.57,0,0,1-1.13.47l-.23.9A.74.74,0,0,1,21,28.75Zm-1.38-1.5h.8l.19-.76a.75.75,0,0,1,.56-.55,5.38,5.38,0,0,0,1.53-.63.73.73,0,0,1,.78,0l.68.4.56-.56-.4-.68a.73.73,0,0,1,0-.78,5.26,5.26,0,0,0,.63-1.53.75.75,0,0,1,.55-.56l.76-.19v-.8l-.76-.19a.75.75,0,0,1-.55-.56,5.26,5.26,0,0,0-.63-1.53.73.73,0,0,1,0-.78l.4-.68-.56-.56-.68.4a.73.73,0,0,1-.78,0,5.38,5.38,0,0,0-1.53-.63.75.75,0,0,1-.56-.55l-.19-.76h-.8l-.19.76a.75.75,0,0,1-.56.55,5.38,5.38,0,0,0-1.53.63.73.73,0,0,1-.78,0l-.68-.4-.56.56.4.68a.73.73,0,0,1,0,.78,5.38,5.38,0,0,0-.63,1.53.75.75,0,0,1-.55.56l-.76.19v.8l.76.19a.75.75,0,0,1,.55.56,5.38,5.38,0,0,0,.63,1.53.73.73,0,0,1,0,.78l-.4.68.56.56.68-.4a.73.73,0,0,1,.78,0,5.38,5.38,0,0,0,1.53.63.75.75,0,0,1,.56.55Z"/><path d="M33.84,19.75H32.16a.74.74,0,0,1-.73-.57L31.37,19a1,1,0,0,0-.56-.66,1,1,0,0,0-.88.07l-.19.11a.76.76,0,0,1-.92-.11l-1.19-1.19a.76.76,0,0,1-.11-.92l.12-.21a.92.92,0,0,0,.06-.84.94.94,0,0,0-.65-.58l-.23-.06a.74.74,0,0,1-.57-.73V12.16a.74.74,0,0,1,.57-.73l.23-.06a.93.93,0,0,0,.64-.55,1,1,0,0,0-.05-.87l-.12-.21a.76.76,0,0,1,.11-.92l1.19-1.19a.76.76,0,0,1,.92-.11l.21.12a.92.92,0,0,0,.84.06.94.94,0,0,0,.58-.65l.06-.23a.74.74,0,0,1,.73-.57h1.68a.74.74,0,0,1,.73.56l.06.24a.93.93,0,0,0,.55.64,1,1,0,0,0,.88-.06l.2-.11a.76.76,0,0,1,.92.11l1.19,1.19a.76.76,0,0,1,.11.92l-.11.19a1,1,0,0,0-.07.88h0a1,1,0,0,0,.66.56l.22.06a.74.74,0,0,1,.57.73v1.68a.74.74,0,0,1-.57.73l-.23.06a.93.93,0,0,0-.64.55,1,1,0,0,0,.06.89l.11.19a.76.76,0,0,1-.11.92l-1.19,1.19a.76.76,0,0,1-.92.11l-.21-.12a.92.92,0,0,0-.84-.06,1,1,0,0,0-.58.64l-.06.25A.74.74,0,0,1,33.84,19.75Zm-1.13-1.5h.58a2.46,2.46,0,0,1,1.32-1.33,2.5,2.5,0,0,1,1.9,0l.41-.4a2.48,2.48,0,0,1,0-1.89,2.41,2.41,0,0,1,1.33-1.33v-.58a2.46,2.46,0,0,1-1.33-3.22l-.41-.41a2.48,2.48,0,0,1-1.89,0,2.41,2.41,0,0,1-1.33-1.33h-.58a2.43,2.43,0,0,1-1.32,1.33,2.5,2.5,0,0,1-1.9,0l-.4.4a2.47,2.47,0,0,1-1.34,3.22v.58a2.46,2.46,0,0,1,1.33,1.32,2.5,2.5,0,0,1,0,1.9l.4.41a2.46,2.46,0,0,1,3.22,1.33Z"/><path d="M33,15.75h0A2.71,2.71,0,0,1,31,14.92,2.68,2.68,0,0,1,30.25,13,2.71,2.71,0,0,1,31.08,11a2.58,2.58,0,0,1,2-.79,2.75,2.75,0,0,1,0,5.5Zm0-4a1.27,1.27,0,0,0-.88.36,1.24,1.24,0,0,0-.37.88A1.26,1.26,0,0,0,33,14.25a1.34,1.34,0,0,0,.89-.36,1.24,1.24,0,0,0,0-1.76,1.21,1.21,0,0,0-.88-.38Z"/><path d="M20,23.75A2.75,2.75,0,1,1,22.75,21,2.75,2.75,0,0,1,20,23.75Zm0-4A1.25,1.25,0,1,0,21.25,21,1.25,1.25,0,0,0,20,19.75Z"/></g></svg>