<svg fill="#C02424" xmlns="http://www.w3.org/2000/svg" viewBox="0 0 48 48"><title>iStock-951866380 [Converted]</title><g id="icon"><path d="M19,25.75a.74.74,0,0,1-.53-.22l-12-12a.75.75,0,0,1,0-1.06l6-6a.75.75,0,0,1,1.06,0l12,12a.75.75,0,0,1-1.06,1.06L13,8.06,8.06,13,19.53,24.47a.75.75,0,0,1,0,1.06A.74.74,0,0,1,19,25.75Z"/><path d="M38,44.75h0a.75.75,0,0,1-.53-.22L27.69,34.6a.75.75,0,1,1,1.07-1.05L38,42.94,42.94,38l-9.47-9.47a.75.75,0,0,1,1.06-1.06l10,10a.75.75,0,0,1,0,1.06l-6,6A.75.75,0,0,1,38,44.75Z"/><path d="M14.58,12.86a.74.74,0,0,1-.53-.22.75.75,0,0,1,0-1.06L15.62,10a.75.75,0,0,1,1.06,1.06l-1.57,1.57A.73.73,0,0,1,14.58,12.86Z"/><path d="M17.92,16.2a.79.79,0,0,1-.53-.22.75.75,0,0,1,0-1.06L19,13.35A.75.75,0,1,1,20,14.41L18.45,16A.79.79,0,0,1,17.92,16.2Z"/><path d="M34.61,32.88a.71.71,0,0,1-.53-.22.74.74,0,0,1,0-1.06L35.64,30a.75.75,0,0,1,1.06,0,.74.74,0,0,1,0,1.06l-1.56,1.57A.74.74,0,0,1,34.61,32.88Z"/><path d="M37.94,36.22a.79.79,0,0,1-.53-.22.75.75,0,0,1,0-1.06L39,33.37a.75.75,0,0,1,1.06,0,.75.75,0,0,1,0,1.06L38.47,36A.75.75,0,0,1,37.94,36.22Z"/><path d="M8,43.75a.75.75,0,0,1-.53-.22.74.74,0,0,1-.2-.69l2-9a.75.75,0,0,1,.2-.37l28-28a.75.75,0,0,1,1.06,0l7,7a.75.75,0,0,1,0,1.06l-28,28a.75.75,0,0,1-.37.2l-9,2Zm2.68-9.37L9,42l7.63-1.69L43.94,13,38,7.06ZM17,41h0Z"/><path d="M40.23,18.37a.79.79,0,0,1-.53-.22L33,11.49a.75.75,0,0,1,0-1.06.74.74,0,0,1,1.06,0l6.66,6.66a.74.74,0,0,1,0,1.06A.77.77,0,0,1,40.23,18.37Z"/><path d="M17,41.75a.74.74,0,0,1-.53-.22l-7-7a.75.75,0,0,1,1.06-1.06l7,7a.75.75,0,0,1,0,1.06A.74.74,0,0,1,17,41.75Z"/><path d="M16.42,35.38a.77.77,0,0,1-.53-.21.77.77,0,0,1,0-1.07L34.36,15.62a.75.75,0,0,1,1.06,0,.74.74,0,0,1,0,1.06L17,35.17A.77.77,0,0,1,16.42,35.38Z"/></g></svg>