<svg fill="#C02424" xmlns="http://www.w3.org/2000/svg" viewBox="0 0 48 48"><title>iStock-951864662 [Converted]</title><g id="icon"><path d="M24,34.75A12.75,12.75,0,1,1,36.75,22,12.76,12.76,0,0,1,24,34.75Zm0-24A11.25,11.25,0,1,0,35.25,22,11.27,11.27,0,0,0,24,10.75Z"/><path d="M28,43.75a.76.76,0,0,1-.75-.75V38.75h-6.5V43a.75.75,0,0,1-1.5,0V38a.76.76,0,0,1,.75-.75h8a.76.76,0,0,1,.75.75v5A.76.76,0,0,1,28,43.75Z"/><path d="M28,41.75H20a.75.75,0,0,1,0-1.5h8a.75.75,0,0,1,0,1.5Z"/><path d="M22,38.75a.76.76,0,0,1-.75-.75V34a.75.75,0,0,1,1.5,0v4A.76.76,0,0,1,22,38.75Z"/><path d="M26,38.75a.76.76,0,0,1-.75-.75V34a.75.75,0,0,1,1.5,0v4A.76.76,0,0,1,26,38.75Z"/><path d="M42,25.75H39a.75.75,0,0,1,0-1.5h2.25V5.75H6.75v18.5H9a.75.75,0,0,1,0,1.5H6A.76.76,0,0,1,5.25,25V5A.76.76,0,0,1,6,4.25H42a.76.76,0,0,1,.75.75V25A.76.76,0,0,1,42,25.75Z"/><path d="M40,11.75A5.15,5.15,0,0,1,35.25,7a.75.75,0,0,1,1.5,0A3.68,3.68,0,0,0,40,10.25a.75.75,0,0,1,0,1.5Z"/><path d="M10,19.41a.81.81,0,0,1-.42-.12A2.89,2.89,0,0,0,8,18.75a.75.75,0,0,1,0-1.5,4.35,4.35,0,0,1,2.42.79.74.74,0,0,1,.2,1A.73.73,0,0,1,10,19.41Z"/><path d="M8,11.75a.75.75,0,0,1,0-1.5A3.68,3.68,0,0,0,11.25,7a.75.75,0,0,1,1.5,0A5.15,5.15,0,0,1,8,11.75Z"/><path d="M38,19.41a.73.73,0,0,1-.62-.33.74.74,0,0,1,.2-1A4.35,4.35,0,0,1,40,17.25a.75.75,0,0,1,0,1.5,2.86,2.86,0,0,0-1.58.54A.81.81,0,0,1,38,19.41Z"/><path d="M24,31.75A9.75,9.75,0,1,1,33.75,22,9.76,9.76,0,0,1,24,31.75Zm0-18A8.25,8.25,0,1,0,32.25,22,8.26,8.26,0,0,0,24,13.75Z"/><path d="M25,26.75H21a.75.75,0,0,1,0-1.5h4a1.25,1.25,0,0,0,0-2.5H23a2.75,2.75,0,0,1,0-5.5h4a.75.75,0,0,1,0,1.5H23a1.25,1.25,0,0,0,0,2.5h2a2.75,2.75,0,0,1,0,5.5Z"/><path d="M24,18.75a.76.76,0,0,1-.75-.75V16a.75.75,0,0,1,1.5,0v2A.76.76,0,0,1,24,18.75Z"/><path d="M24,28.75a.76.76,0,0,1-.75-.75V26a.75.75,0,0,1,1.5,0v2A.76.76,0,0,1,24,28.75Z"/></g></svg>