<svg fill="#C02424" xmlns="http://www.w3.org/2000/svg" viewBox="0 0 48 48"><title>iStock-953869708 [Converted]</title><g id="Layer_3" data-name="Layer 3"><path d="M36.61,20.33H28a.75.75,0,1,1,0-1.5h8.62a.75.75,0,0,1,0,1.5Z"/><path d="M36.61,16.72H28a.75.75,0,0,1,0-1.5h8.62a.75.75,0,0,1,0,1.5Z"/><path d="M36.61,27.55H28a.75.75,0,0,1,0-1.5h8.62a.75.75,0,0,1,0,1.5Z"/><path d="M36.61,23.94H28a.75.75,0,0,1,0-1.5h8.62a.75.75,0,0,1,0,1.5Z"/><path d="M23.64,25.31h-.12a.74.74,0,0,1-.62-.86,18.37,18.37,0,0,0,.24-3.52,5.92,5.92,0,0,0-5.62-5.85h-.3a5.93,5.93,0,0,0-5.29,5.83.78.78,0,0,1-.79.71.75.75,0,0,1-.71-.79,7.44,7.44,0,0,1,6.71-7.25h.38a7.41,7.41,0,0,1,7.12,7.27,19.42,19.42,0,0,1-.26,3.84A.75.75,0,0,1,23.64,25.31Z"/><path d="M19.76,27.68a.73.73,0,0,1-.25,0,.76.76,0,0,1-.45-1,15.1,15.1,0,0,0,.9-5.54,2.59,2.59,0,0,0-2.44-2.57h-.13a2.63,2.63,0,0,0-2.29,2.86,8.9,8.9,0,0,1-.82,3.82.74.74,0,0,1-1,.33.76.76,0,0,1-.34-1,7.38,7.38,0,0,0,.66-3.08,4.14,4.14,0,0,1,3.71-4.42h.21a4.08,4.08,0,0,1,3.94,4,17,17,0,0,1-1,6.15A.76.76,0,0,1,19.76,27.68Z"/><path d="M15.7,28.5a.72.72,0,0,1-.44-.14.75.75,0,0,1-.16-1.05,10.38,10.38,0,0,0,1.68-6,.75.75,0,1,1,1.5-.08,11.93,11.93,0,0,1-2,7A.76.76,0,0,1,15.7,28.5Z"/><path d="M30.84,39.11H17.16a.75.75,0,1,1,0-1.5H30.84a.75.75,0,1,1,0,1.5Z"/><path d="M27.73,38.88a.76.76,0,0,1-.75-.76v-5a.75.75,0,0,1,1.5,0v5A.76.76,0,0,1,27.73,38.88Z"/><path d="M20.27,38.88a.75.75,0,0,1-.75-.76v-5a.75.75,0,0,1,1.5,0v5A.76.76,0,0,1,20.27,38.88Z"/><path d="M39.48,33.7h-31a2.33,2.33,0,0,1-2.33-2.33V11.22A2.33,2.33,0,0,1,8.52,8.89h31a2.33,2.33,0,0,1,2.33,2.33V31.37A2.33,2.33,0,0,1,39.48,33.7Zm-31-23.31a.83.83,0,0,0-.83.83V31.37a.83.83,0,0,0,.83.83h31a.83.83,0,0,0,.83-.83V11.22a.83.83,0,0,0-.83-.83Z"/></g></svg>