<svg fill="#C02424" xmlns="http://www.w3.org/2000/svg" viewBox="0 0 48 48"><title>iStock-951865092 [Converted]</title><g id="icon"><path d="M35.78,30.85a.76.76,0,0,1-.7-.47.75.75,0,0,1,.42-1,8.94,8.94,0,0,0,3.66-2.71.75.75,0,0,1,1.17.94,10.52,10.52,0,0,1-4.28,3.17A.86.86,0,0,1,35.78,30.85Z"/><path d="M22.13,15.36a.72.72,0,0,1-.42-.13l-.5-.33a9.2,9.2,0,0,0-4.53-1.57.75.75,0,0,1,.11-1.5,10.89,10.89,0,0,1,5.26,1.82l.5.34a.75.75,0,0,1-.42,1.37Z"/><path d="M34.87,31.22a.74.74,0,0,1-.75-.68.75.75,0,0,1,.68-.82,1.16,1.16,0,0,0,.86-.5,1.18,1.18,0,0,0-.27-1.67l-.1-.07-4.2-4a.75.75,0,1,1,1-1.09l4.17,3.92A2.64,2.64,0,0,1,36.94,30a2.69,2.69,0,0,1-2,1.23Z"/><path d="M9.4,30.09a.74.74,0,0,1-.51-.2,10.29,10.29,0,0,1-2.24-3,.74.74,0,0,1,.34-1,.75.75,0,0,1,1,.34,8.91,8.91,0,0,0,1.92,2.59.75.75,0,0,1-.51,1.3Z"/><path d="M33.18,34.9a2.64,2.64,0,0,1-1.46-.45l-8.66-5.84a.75.75,0,1,1,.84-1.24l8.66,5.84a1.19,1.19,0,0,0,1.33-2l-8.6-5.8a.75.75,0,0,1-.2-1,.74.74,0,0,1,1-.2l8.6,5.8a2.66,2.66,0,0,1,.72,3.68A2.73,2.73,0,0,1,33.18,34.9Z"/><path d="M30.34,37.68a2.65,2.65,0,0,1-1.48-.45l-7.14-4.8a.75.75,0,0,1,.83-1.25L29.7,36a1.14,1.14,0,0,0,1.6-.31A1.17,1.17,0,0,0,31,34l-8-5.39a.75.75,0,1,1,.84-1.24l8,5.38a2.71,2.71,0,0,1-1,4.87A2.21,2.21,0,0,1,30.34,37.68Z"/><path d="M25.75,39.28a2.64,2.64,0,0,1-1.47-.45l-1.48-1a.75.75,0,0,1,.84-1.25l1.48,1a1.15,1.15,0,0,0,1.6-.31,1.18,1.18,0,0,0-.26-1.67l-4.74-3.17a.75.75,0,0,1,.83-1.25l4.74,3.18A2.65,2.65,0,0,1,28,38,2.72,2.72,0,0,1,25.75,39.28Z"/><path d="M31.65,23.58a6,6,0,0,1-5.09-2.81l-1.45-2.34-2.52,1a4.63,4.63,0,0,1-6-2.58.75.75,0,0,1,.41-1L28,11.43a11,11,0,0,1,5.34-.7.75.75,0,1,1-.18,1.49,9.38,9.38,0,0,0-4.6.6L18.32,16.94A3.06,3.06,0,0,0,19.64,18,3.12,3.12,0,0,0,22,18l3.1-1.23a.75.75,0,0,1,.91.31L27.83,20A4.5,4.5,0,0,0,34,21.4a.75.75,0,1,1,.79,1.27A5.93,5.93,0,0,1,31.65,23.58Z"/><path d="M11.25,32.89a2.69,2.69,0,0,1-1.58-.52,2.7,2.7,0,0,1-.59-3.76L11.73,25a2.7,2.7,0,0,1,3.76-.59,2.7,2.7,0,0,1,1.08,1.76,2.65,2.65,0,0,1-.49,2l-2.65,3.64a2.64,2.64,0,0,1-1.75,1.07A2.09,2.09,0,0,1,11.25,32.89Zm2.66-7.52h-.19a1.2,1.2,0,0,0-.78.48l-2.65,3.63a1.22,1.22,0,0,0-.21.89,1.2,1.2,0,0,0,2.14.52h0l2.65-3.64a1.17,1.17,0,0,0,.21-.89,1.15,1.15,0,0,0-.47-.78A1.19,1.19,0,0,0,13.91,25.37Z"/><path d="M14.39,35.17a2.68,2.68,0,0,1-2.17-4.27L16,25.78a2.68,2.68,0,0,1,1.76-1.08A2.69,2.69,0,0,1,20.3,29l-3.72,5.12h0a2.69,2.69,0,0,1-1.76,1.07Zm3.74-9a.62.62,0,0,0-.19,0,1.15,1.15,0,0,0-.78.47l-3.73,5.12a1.21,1.21,0,0,0,.27,1.67,1.19,1.19,0,0,0,.88.21,1.18,1.18,0,0,0,.78-.48l3.73-5.11a1.23,1.23,0,0,0,.22-.89,1.18,1.18,0,0,0-.48-.78A1.2,1.2,0,0,0,18.13,26.17ZM16,33.62h0Z"/><path d="M17.53,37.46A2.75,2.75,0,0,1,16,37a2.71,2.71,0,0,1-.59-3.77L18,29.55A2.69,2.69,0,0,1,21.77,29a2.68,2.68,0,0,1,.59,3.76l-2.64,3.63A2.66,2.66,0,0,1,18,37.43,3.11,3.11,0,0,1,17.53,37.46Zm2.66-7.52a1.21,1.21,0,0,0-1,.49l-2.64,3.64a1.19,1.19,0,1,0,1.92,1.4h0l2.65-3.63a1.18,1.18,0,0,0-.26-1.67A1.22,1.22,0,0,0,20.19,29.94Z"/><path d="M20.68,39.75a2.7,2.7,0,0,1-1.59-.52A2.64,2.64,0,0,1,18,37.48a2.7,2.7,0,0,1,.48-2l1.59-2.18a2.7,2.7,0,0,1,3.76-.59,2.64,2.64,0,0,1,1.08,1.76,2.69,2.69,0,0,1-.48,2l-1.59,2.18A2.68,2.68,0,0,1,20.68,39.75Zm1.59-6.07a1.21,1.21,0,0,0-1,.49l-1.58,2.18A1.18,1.18,0,0,0,20,38a1.17,1.17,0,0,0,1.66-.26h0l1.59-2.18a1.18,1.18,0,0,0,.22-.89,1.2,1.2,0,0,0-.48-.78A1.22,1.22,0,0,0,22.27,33.68Z"/><path d="M7,27.7a.7.7,0,0,1-.46-.16l-5-3.95a.75.75,0,1,1,.92-1.18l4.41,3.45,9-13.28-4.26-3a.75.75,0,0,1,.86-1.24l4.86,3.4a.75.75,0,0,1,.19,1L7.66,27.37a.76.76,0,0,1-.51.32Z"/><path d="M39.86,28.22a.59.59,0,0,1-.29-.07.68.68,0,0,1-.4-.41l-6.54-16.3a.78.78,0,0,1,0-.58.75.75,0,0,1,.42-.4L38.74,8.3a.75.75,0,1,1,.53,1.4l-5,1.89,6,14.9,5.44-2.19a.75.75,0,1,1,.56,1.4l-6.14,2.46A.67.67,0,0,1,39.86,28.22Z"/></g></svg>