<svg fill="#C02424" xmlns="http://www.w3.org/2000/svg" viewBox="0 0 48 48"><title>iStock-953869708 [Converted]</title><g id="icon"><path d="M25,38.47a.76.76,0,0,1-.5-.19c-.14-.11-5.75-5.67-9.36-9.26a.77.77,0,0,1,0-1.07.75.75,0,0,1,1.06,0c3.29,3.28,7.38,7.33,8.79,8.72,1.95-1.92,9.19-9.13,13.24-13.16a7.44,7.44,0,0,0,2.19-5.23A7.12,7.12,0,0,0,33.18,11,7.44,7.44,0,0,0,28,13.23l-2.4,2.4a.73.73,0,0,1-.58.22.87.87,0,0,1-.53-.22l-2.39-2.4A7.47,7.47,0,0,0,16.83,11a7.14,7.14,0,0,0-5.16,2.09,7.35,7.35,0,0,0-1.15,8.73.74.74,0,0,1-.29,1,.75.75,0,0,1-1-.29,8.83,8.83,0,0,1,1.4-10.52,8.63,8.63,0,0,1,6.15-2.53h.09a9,9,0,0,1,6.27,2.64L25,14.06l1.89-1.89a8.94,8.94,0,0,1,6.27-2.64h.09a8.62,8.62,0,0,1,8.67,8.77,9,9,0,0,1-2.63,6.27c-4.1,4.08-13.64,13.58-13.8,13.71A.73.73,0,0,1,25,38.47Z"/><path d="M21.91,29.46a.75.75,0,0,1-.67-.42l-2.6-5.29-1.5,2a.77.77,0,0,1-.61.3H6.81a.75.75,0,1,1,0-1.5h9.34l2-2.72a.75.75,0,0,1,.67-.3.72.72,0,0,1,.6.42l2.31,4.69,2.47-8a.76.76,0,0,1,.7-.53.73.73,0,0,1,.72.49l2.18,6h3.23a.75.75,0,0,1,0,1.5H27.3a.76.76,0,0,1-.71-.49L25,21.23l-2.37,7.7a.74.74,0,0,1-.66.52Z"/></g></svg>