<?xml version="1.0" encoding="utf-8"?>
<!-- Generator: Adobe Illustrator 23.1.1, SVG Export Plug-In . SVG Version: 6.00 Build 0)  -->
<svg version="1.1" xmlns="http://www.w3.org/2000/svg" xmlns:xlink="http://www.w3.org/1999/xlink" x="0px" y="0px"
	 viewBox="0 0 48 48" style="enable-background:new 0 0 48 48;" xml:space="preserve">
<style type="text/css">
	.st0{fill:none;stroke:#000000;stroke-width:1.5;stroke-linecap:round;stroke-linejoin:round;stroke-miterlimit:10;}
	.st1{fill:none;stroke:#000000;stroke-width:1.5;}
	.st2{fill:none;stroke:#000000;stroke-width:1.5;stroke-dasharray:3.8571,2.5714;}
	.st3{fill:none;stroke:#000000;stroke-width:1.5;stroke-dasharray:2.8636,1.9091;}
	.st4{fill:none;stroke:#000000;stroke-width:1.5;stroke-dasharray:3,2;}
	.st5{fill:none;stroke:#000000;stroke-width:1.5;stroke-dasharray:2.5,1.6667;}
	.st6{fill:none;stroke:#000000;stroke-width:1.5;stroke-linecap:round;stroke-linejoin:round;}
	.st7{fill:none;stroke:#000000;stroke-width:1.5;stroke-linecap:round;stroke-miterlimit:10;}
	
		.st8{fill:none;stroke:#000000;stroke-width:1.5;stroke-linecap:round;stroke-linejoin:round;stroke-miterlimit:10;stroke-dasharray:2,3;}
	
		.st9{fill:none;stroke:#000000;stroke-width:1.5;stroke-linecap:round;stroke-linejoin:round;stroke-miterlimit:10;stroke-dasharray:3,3;}
	.st10{fill:none;stroke:#000000;stroke-width:1.5;stroke-linecap:round;stroke-linejoin:round;stroke-dasharray:2,3;}
	.st11{fill:none;stroke:#000000;stroke-width:0;stroke-miterlimit:10;}
	.st12{fill:none;stroke:#000000;stroke-width:1.5;stroke-linecap:round;stroke-linejoin:round;stroke-dasharray:1.7375,2.6062;}
	.st13{fill:none;stroke:#000000;stroke-width:1.5;stroke-linecap:round;stroke-linejoin:round;stroke-dasharray:1.7436,2.6153;}
	.st14{fill:none;stroke:#000000;stroke-width:1.5;stroke-linecap:round;stroke-linejoin:round;stroke-dasharray:1.4209,2.1314;}
	.st15{fill:none;stroke:#000000;stroke-width:1.5;stroke-linecap:round;stroke-linejoin:round;stroke-dasharray:1.3568,2.0351;}
	.st16{fill:none;stroke:#000000;stroke-width:1.5;stroke-linecap:round;stroke-linejoin:round;stroke-dasharray:1.5,2.25;}
	
		.st17{fill:none;stroke:#000000;stroke-width:1.5;stroke-linecap:round;stroke-linejoin:round;stroke-miterlimit:10;stroke-dasharray:3,2;}
	.st18{fill:none;stroke:#000000;stroke-width:1.5;stroke-linecap:round;stroke-linejoin:round;stroke-dasharray:1,3;}
	.st19{fill:none;stroke:#000000;stroke-width:1.5;stroke-linecap:round;stroke-linejoin:round;stroke-dasharray:0.9183,2.755;}
	.st20{fill:none;stroke:#000000;stroke-width:1.5;stroke-linecap:round;stroke-linejoin:round;stroke-dasharray:0.868,2.6039;}
	.st21{fill:none;stroke:#000000;stroke-width:1.5;stroke-linecap:round;stroke-linejoin:round;stroke-dasharray:1.9571,2.9357;}
	.st22{fill:none;stroke:#000000;stroke-width:1.5;stroke-linecap:round;stroke-linejoin:round;stroke-dasharray:1.8782,2.8173;}
	.st23{fill:none;stroke:#000000;stroke-width:1.5;stroke-linecap:round;stroke-linejoin:round;stroke-dasharray:2.1456,3.2183;}
	.st24{fill:none;stroke:#000000;stroke-width:1.5;stroke-linecap:round;stroke-linejoin:round;stroke-dasharray:1.909,2.8635;}
	
		.st25{fill:none;stroke:#000000;stroke-width:1.5;stroke-linecap:round;stroke-linejoin:round;stroke-miterlimit:10;stroke-dasharray:2,2;}
	.st26{fill:none;stroke:#000000;stroke-width:1.5;stroke-linecap:round;stroke-linejoin:round;stroke-dasharray:2.047,3.0705;}
	.st27{fill:none;stroke:#000000;stroke-width:1.5;stroke-linecap:round;stroke-linejoin:round;stroke-dasharray:2.1702,3.2552;}
	.st28{fill:none;stroke:#000000;stroke-width:1.5;stroke-linecap:round;stroke-linejoin:round;stroke-dasharray:1.8261,2.7391;}
	
		.st29{fill:none;stroke:#000000;stroke-width:1.5;stroke-linecap:round;stroke-linejoin:round;stroke-miterlimit:10;stroke-dasharray:5.2729,2.6365;}
	
		.st30{fill:none;stroke:#000000;stroke-width:1.5;stroke-linecap:round;stroke-linejoin:round;stroke-miterlimit:10;stroke-dasharray:5,2;}
	
		.st31{fill:none;stroke:#000000;stroke-width:1.5;stroke-linecap:round;stroke-linejoin:round;stroke-miterlimit:10;stroke-dasharray:3,4;}
	
		.st32{fill:none;stroke:#000000;stroke-width:1.5;stroke-linecap:round;stroke-linejoin:round;stroke-miterlimit:10;stroke-dasharray:3.1615,2.1077;}
	.st33{fill:none;stroke:#000000;stroke-width:1.5;stroke-linejoin:round;stroke-miterlimit:10;}
	.st34{fill:#E7BBEB;}
	.st35{fill:#92DFF3;}
	.st36{fill:#C02424;}
	.st37{fill:#231F20;}
	.st38{fill:#ED1C24;}
</style>
<g id="base-size">
</g>
<g id="icon">
</g>
<g id="Layer_3">
	<g>
		<path class="st0" d="M31,21.5C30.7,27.4,25.9,32,20,32c-4.7,0-8.7-3-10.3-7.1"/>
		<path class="st0" d="M9,20.9c0-6,5-10.9,11-10.9c1.4,0,2.8,0.3,4,0.8"/>
		<polyline class="st0" points="16,41 16,36 24,36 24,41 		"/>
		<line class="st0" x1="16" y1="39" x2="23" y2="39"/>
		<line class="st0" x1="18" y1="32" x2="18" y2="36"/>
		<line class="st0" x1="22" y1="32" x2="22" y2="36"/>
		<path class="st0" d="M25.7,19.7c-0.1-0.6-0.4-1.2-0.7-1.8l0.7-1.2l-1.4-1.4l-1.2,0.7c-0.5-0.3-1.1-0.6-1.8-0.7L21,14h-2l-0.3,1.3
			c-0.6,0.1-1.2,0.4-1.8,0.7l-1.2-0.7l-1.4,1.4l0.7,1.2c-0.3,0.5-0.6,1.1-0.7,1.8L13,20v2l1.3,0.3c0.1,0.6,0.4,1.2,0.7,1.8l-0.7,1.2
			l1.4,1.4l1.2-0.7c0.5,0.3,1.1,0.6,1.8,0.7L19,28h2l0.3-1.3c0.6-0.1,1.2-0.4,1.8-0.7l1.2,0.7l1.4-1.4l-0.7-1.2
			c0.3-0.5,0.6-1.1,0.7-1.8L27,22v-2L25.7,19.7z"/>
		<path class="st0" d="M37.6,11.1L37.6,11.1c-0.2-0.5-0.2-1.1,0.1-1.5l0.1-0.2l-1.2-1.2l-0.2,0.1c-0.5,0.3-1,0.3-1.5,0.1l0,0
			c-0.5-0.2-0.9-0.6-1-1.1L33.8,7h-1.7l-0.1,0.2c-0.1,0.5-0.5,0.9-1,1.1l0,0c-0.5,0.2-1.1,0.2-1.5-0.1l-0.2-0.1l-1.2,1.2l0.1,0.2
			c0.3,0.5,0.3,1,0.1,1.5l0,0c-0.2,0.5-0.6,0.9-1.1,1L27,12.2v1.7l0.2,0.1c0.5,0.1,0.9,0.5,1.1,1l0,0c0.2,0.5,0.2,1.1-0.1,1.5
			l-0.1,0.2l1.2,1.2l0.2-0.1c0.5-0.3,1-0.3,1.5-0.1l0,0c0.5,0.2,0.9,0.6,1,1.2l0.1,0.2h1.7l0.1-0.2c0.1-0.5,0.5-0.9,1-1.1l0,0
			c0.5-0.2,1.1-0.2,1.5,0.1l0.2,0.1l1.2-1.2l-0.1-0.2c-0.3-0.5-0.3-1-0.1-1.5l0,0c0.2-0.5,0.6-0.9,1.1-1l0.2-0.1v-1.7l-0.2-0.1
			C38.2,12,37.8,11.6,37.6,11.1z"/>
		<path class="st0" d="M34.4,11.6c0.8,0.8,0.8,2.1,0,2.8c-0.8,0.8-2.1,0.8-2.8,0c-0.8-0.8-0.8-2.1,0-2.8
			C32.4,10.8,33.7,10.8,34.4,11.6z"/>
		<circle class="st0" cx="20" cy="21" r="2"/>
	</g>
</g>
<g id="TEMPLATE">
</g>
</svg>
