<?xml version="1.0" encoding="utf-8"?>
<!-- Generator: Adobe Illustrator 23.1.1, SVG Export Plug-In . SVG Version: 6.00 Build 0)  -->
<svg version="1.1" xmlns="http://www.w3.org/2000/svg" xmlns:xlink="http://www.w3.org/1999/xlink" x="0px" y="0px"
	 viewBox="0 0 48 48" style="enable-background:new 0 0 48 48;" xml:space="preserve">
<style type="text/css">
	.st0{fill:none;stroke:#000000;stroke-width:1.5;stroke-linecap:round;stroke-linejoin:round;stroke-miterlimit:10;}
	.st1{fill:none;stroke:#000000;stroke-width:1.5;}
	.st2{fill:none;stroke:#000000;stroke-width:1.5;stroke-dasharray:3.8571,2.5714;}
	.st3{fill:none;stroke:#000000;stroke-width:1.5;stroke-dasharray:2.8636,1.9091;}
	.st4{fill:none;stroke:#000000;stroke-width:1.5;stroke-dasharray:3,2;}
	.st5{fill:none;stroke:#000000;stroke-width:1.5;stroke-dasharray:2.5,1.6667;}
	.st6{fill:none;stroke:#000000;stroke-width:1.5;stroke-linecap:round;stroke-linejoin:round;}
	.st7{fill:none;stroke:#000000;stroke-width:1.5;stroke-linecap:round;stroke-miterlimit:10;}
	
		.st8{fill:none;stroke:#000000;stroke-width:1.5;stroke-linecap:round;stroke-linejoin:round;stroke-miterlimit:10;stroke-dasharray:2,3;}
	
		.st9{fill:none;stroke:#000000;stroke-width:1.5;stroke-linecap:round;stroke-linejoin:round;stroke-miterlimit:10;stroke-dasharray:3,3;}
	.st10{fill:none;stroke:#000000;stroke-width:1.5;stroke-linecap:round;stroke-linejoin:round;stroke-dasharray:2,3;}
	.st11{fill:none;stroke:#000000;stroke-width:0;stroke-miterlimit:10;}
	.st12{fill:none;stroke:#000000;stroke-width:1.5;stroke-linecap:round;stroke-linejoin:round;stroke-dasharray:1.7375,2.6062;}
	.st13{fill:none;stroke:#000000;stroke-width:1.5;stroke-linecap:round;stroke-linejoin:round;stroke-dasharray:1.7436,2.6153;}
	.st14{fill:none;stroke:#000000;stroke-width:1.5;stroke-linecap:round;stroke-linejoin:round;stroke-dasharray:1.4209,2.1314;}
	.st15{fill:none;stroke:#000000;stroke-width:1.5;stroke-linecap:round;stroke-linejoin:round;stroke-dasharray:1.3568,2.0351;}
	.st16{fill:none;stroke:#000000;stroke-width:1.5;stroke-linecap:round;stroke-linejoin:round;stroke-dasharray:1.5,2.25;}
	
		.st17{fill:none;stroke:#000000;stroke-width:1.5;stroke-linecap:round;stroke-linejoin:round;stroke-miterlimit:10;stroke-dasharray:3,2;}
	.st18{fill:none;stroke:#000000;stroke-width:1.5;stroke-linecap:round;stroke-linejoin:round;stroke-dasharray:1,3;}
	.st19{fill:none;stroke:#000000;stroke-width:1.5;stroke-linecap:round;stroke-linejoin:round;stroke-dasharray:0.9183,2.755;}
	.st20{fill:none;stroke:#000000;stroke-width:1.5;stroke-linecap:round;stroke-linejoin:round;stroke-dasharray:0.868,2.6039;}
	.st21{fill:none;stroke:#000000;stroke-width:1.5;stroke-linecap:round;stroke-linejoin:round;stroke-dasharray:1.9571,2.9357;}
	.st22{fill:none;stroke:#000000;stroke-width:1.5;stroke-linecap:round;stroke-linejoin:round;stroke-dasharray:1.8782,2.8173;}
	.st23{fill:none;stroke:#000000;stroke-width:1.5;stroke-linecap:round;stroke-linejoin:round;stroke-dasharray:2.1456,3.2183;}
	.st24{fill:none;stroke:#000000;stroke-width:1.5;stroke-linecap:round;stroke-linejoin:round;stroke-dasharray:1.909,2.8635;}
	
		.st25{fill:none;stroke:#000000;stroke-width:1.5;stroke-linecap:round;stroke-linejoin:round;stroke-miterlimit:10;stroke-dasharray:2,2;}
	.st26{fill:none;stroke:#000000;stroke-width:1.5;stroke-linecap:round;stroke-linejoin:round;stroke-dasharray:2.047,3.0705;}
	.st27{fill:none;stroke:#000000;stroke-width:1.5;stroke-linecap:round;stroke-linejoin:round;stroke-dasharray:2.1702,3.2552;}
	.st28{fill:none;stroke:#000000;stroke-width:1.5;stroke-linecap:round;stroke-linejoin:round;stroke-dasharray:1.8261,2.7391;}
	
		.st29{fill:none;stroke:#000000;stroke-width:1.5;stroke-linecap:round;stroke-linejoin:round;stroke-miterlimit:10;stroke-dasharray:5.2729,2.6365;}
	
		.st30{fill:none;stroke:#000000;stroke-width:1.5;stroke-linecap:round;stroke-linejoin:round;stroke-miterlimit:10;stroke-dasharray:5,2;}
	
		.st31{fill:none;stroke:#000000;stroke-width:1.5;stroke-linecap:round;stroke-linejoin:round;stroke-miterlimit:10;stroke-dasharray:3,4;}
	
		.st32{fill:none;stroke:#000000;stroke-width:1.5;stroke-linecap:round;stroke-linejoin:round;stroke-miterlimit:10;stroke-dasharray:3.1615,2.1077;}
	.st33{fill:none;stroke:#000000;stroke-width:1.5;stroke-linejoin:round;stroke-miterlimit:10;}
	.st34{fill:#E7BBEB;}
	.st35{fill:#92DFF3;}
	.st36{fill:#C02424;}
	.st37{fill:#231F20;}
	.st38{fill:#ED1C24;}
</style>
<g id="base-size">
</g>
<g id="icon">
</g>
<g id="Layer_3">
	<g>
		<path class="st0" d="M39.7,27.2c-1,1.3-2.4,2.3-4,2.9"/>
		<path class="st0" d="M22.1,14.6l-0.5-0.3c-1.5-1-3.2-1.6-4.9-1.7"/>
		<path class="st0" d="M34.9,30.5c0.6,0,1.1-0.3,1.4-0.8l0-0.1c0.6-0.9,0.4-2.1-0.5-2.6l-4.2-4"/>
		<path class="st0" d="M7.3,26.5c0.5,1,1.2,2,2.1,2.8"/>
		<path class="st0" d="M25.7,24.8l8.6,5.8c0.9,0.6,1.1,1.8,0.5,2.6l0,0.1c-0.6,0.9-1.8,1.1-2.6,0.5L23.5,28"/>
		<path class="st0" d="M23.5,28l8,5.4c0.9,0.6,1.1,1.8,0.5,2.6l0,0.1c-0.6,0.9-1.8,1.1-2.6,0.5l-7.1-4.8"/>
		<path class="st0" d="M23.2,37.2l1.5,1c0.9,0.6,2.1,0.4,2.6-0.5l0-0.1c0.6-0.9,0.4-2.1-0.5-2.6l-4.7-3.2"/>
		<path class="st0" d="M33.3,11.5c-1.6-0.2-3.3,0-5,0.7l-1.6,0.6l-9.5,3.8l0,0c0.8,2,3.1,3,5.1,2.2l3.1-1.2l1.8,2.9
			c1.5,2.5,4.8,3.2,7.2,1.7"/>
		<path class="st0" d="M12.8,31.3l2.6-3.6c0.6-0.9,0.4-2.1-0.4-2.7l0,0c-0.9-0.6-2.1-0.4-2.7,0.4L9.7,29c-0.6,0.9-0.4,2.1,0.4,2.7
			l0,0C11,32.4,12.2,32.2,12.8,31.3z"/>
		<path class="st0" d="M16,33.6l3.7-5.1c0.6-0.9,0.4-2.1-0.4-2.7v0c-0.9-0.6-2.1-0.4-2.7,0.4l-3.7,5.1c-0.6,0.9-0.4,2.1,0.4,2.7l0,0
			C14.1,34.7,15.3,34.5,16,33.6z"/>
		<path class="st0" d="M19.1,35.9l2.6-3.6c0.6-0.9,0.4-2.1-0.4-2.7l0,0c-0.9-0.6-2.1-0.4-2.7,0.4L16,33.6c-0.6,0.9-0.4,2.1,0.4,2.7
			l0,0C17.3,37,18.5,36.8,19.1,35.9z"/>
		<path class="st0" d="M22.3,38.2l1.6-2.2c0.6-0.9,0.4-2.1-0.4-2.7l0,0c-0.9-0.6-2.1-0.4-2.7,0.4l-1.6,2.2c-0.6,0.9-0.4,2.1,0.4,2.7
			l0,0C20.4,39.3,21.6,39.1,22.3,38.2z"/>
		<polyline class="st0" points="12,9 16.9,12.4 7,27 2,23 		"/>
		<polyline class="st0" points="39,9 33.3,11.2 39.9,27.5 46,25 		"/>
	</g>
</g>
<g id="TEMPLATE">
</g>
</svg>
