<?xml version="1.0" encoding="utf-8"?>
<!-- Generator: Adobe Illustrator 23.1.1, SVG Export Plug-In . SVG Version: 6.00 Build 0)  -->
<svg version="1.1" xmlns="http://www.w3.org/2000/svg" xmlns:xlink="http://www.w3.org/1999/xlink" x="0px" y="0px"
	 viewBox="0 0 48 48" style="enable-background:new 0 0 48 48;" xml:space="preserve">
<style type="text/css">
	.st0{fill:none;stroke:#000000;stroke-width:1.5;stroke-linecap:round;stroke-linejoin:round;stroke-miterlimit:10;}
	.st1{fill:none;stroke:#000000;stroke-width:1.5;}
	.st2{fill:none;stroke:#000000;stroke-width:1.5;stroke-dasharray:3.8571,2.5714;}
	.st3{fill:none;stroke:#000000;stroke-width:1.5;stroke-dasharray:2.8636,1.9091;}
	.st4{fill:none;stroke:#000000;stroke-width:1.5;stroke-dasharray:3,2;}
	.st5{fill:none;stroke:#000000;stroke-width:1.5;stroke-dasharray:2.5,1.6667;}
	.st6{fill:none;stroke:#000000;stroke-width:1.5;stroke-linecap:round;stroke-linejoin:round;}
	.st7{fill:none;stroke:#000000;stroke-width:1.5;stroke-linecap:round;stroke-miterlimit:10;}
	
		.st8{fill:none;stroke:#000000;stroke-width:1.5;stroke-linecap:round;stroke-linejoin:round;stroke-miterlimit:10;stroke-dasharray:2,3;}
	
		.st9{fill:none;stroke:#000000;stroke-width:1.5;stroke-linecap:round;stroke-linejoin:round;stroke-miterlimit:10;stroke-dasharray:3,3;}
	.st10{fill:none;stroke:#000000;stroke-width:1.5;stroke-linecap:round;stroke-linejoin:round;stroke-dasharray:2,3;}
	.st11{fill:none;stroke:#000000;stroke-width:0;stroke-miterlimit:10;}
	.st12{fill:none;stroke:#000000;stroke-width:1.5;stroke-linecap:round;stroke-linejoin:round;stroke-dasharray:1.7375,2.6062;}
	.st13{fill:none;stroke:#000000;stroke-width:1.5;stroke-linecap:round;stroke-linejoin:round;stroke-dasharray:1.7436,2.6153;}
	.st14{fill:none;stroke:#000000;stroke-width:1.5;stroke-linecap:round;stroke-linejoin:round;stroke-dasharray:1.4209,2.1314;}
	.st15{fill:none;stroke:#000000;stroke-width:1.5;stroke-linecap:round;stroke-linejoin:round;stroke-dasharray:1.3568,2.0351;}
	.st16{fill:none;stroke:#000000;stroke-width:1.5;stroke-linecap:round;stroke-linejoin:round;stroke-dasharray:1.5,2.25;}
	
		.st17{fill:none;stroke:#000000;stroke-width:1.5;stroke-linecap:round;stroke-linejoin:round;stroke-miterlimit:10;stroke-dasharray:3,2;}
	.st18{fill:none;stroke:#000000;stroke-width:1.5;stroke-linecap:round;stroke-linejoin:round;stroke-dasharray:1,3;}
	.st19{fill:none;stroke:#000000;stroke-width:1.5;stroke-linecap:round;stroke-linejoin:round;stroke-dasharray:0.9183,2.755;}
	.st20{fill:none;stroke:#000000;stroke-width:1.5;stroke-linecap:round;stroke-linejoin:round;stroke-dasharray:0.868,2.6039;}
	.st21{fill:none;stroke:#000000;stroke-width:1.5;stroke-linecap:round;stroke-linejoin:round;stroke-dasharray:1.9571,2.9357;}
	.st22{fill:none;stroke:#000000;stroke-width:1.5;stroke-linecap:round;stroke-linejoin:round;stroke-dasharray:1.8782,2.8173;}
	.st23{fill:none;stroke:#000000;stroke-width:1.5;stroke-linecap:round;stroke-linejoin:round;stroke-dasharray:2.1456,3.2183;}
	.st24{fill:none;stroke:#000000;stroke-width:1.5;stroke-linecap:round;stroke-linejoin:round;stroke-dasharray:1.909,2.8635;}
	
		.st25{fill:none;stroke:#000000;stroke-width:1.5;stroke-linecap:round;stroke-linejoin:round;stroke-miterlimit:10;stroke-dasharray:2,2;}
	.st26{fill:none;stroke:#000000;stroke-width:1.5;stroke-linecap:round;stroke-linejoin:round;stroke-dasharray:2.047,3.0705;}
	.st27{fill:none;stroke:#000000;stroke-width:1.5;stroke-linecap:round;stroke-linejoin:round;stroke-dasharray:2.1702,3.2552;}
	.st28{fill:none;stroke:#000000;stroke-width:1.5;stroke-linecap:round;stroke-linejoin:round;stroke-dasharray:1.8261,2.7391;}
	
		.st29{fill:none;stroke:#000000;stroke-width:1.5;stroke-linecap:round;stroke-linejoin:round;stroke-miterlimit:10;stroke-dasharray:5.2729,2.6365;}
	
		.st30{fill:none;stroke:#000000;stroke-width:1.5;stroke-linecap:round;stroke-linejoin:round;stroke-miterlimit:10;stroke-dasharray:5,2;}
	
		.st31{fill:none;stroke:#000000;stroke-width:1.5;stroke-linecap:round;stroke-linejoin:round;stroke-miterlimit:10;stroke-dasharray:3,4;}
	
		.st32{fill:none;stroke:#000000;stroke-width:1.5;stroke-linecap:round;stroke-linejoin:round;stroke-miterlimit:10;stroke-dasharray:3.1615,2.1077;}
	.st33{fill:none;stroke:#000000;stroke-width:1.5;stroke-linejoin:round;stroke-miterlimit:10;}
	.st34{fill:#E7BBEB;}
	.st35{fill:#92DFF3;}
	.st36{fill:#C02424;}
	.st37{fill:#231F20;}
	.st38{fill:#ED1C24;}
</style>
<g id="base-size">
</g>
<g id="icon">
</g>
<g id="Layer_3">
	<g>
		<line class="st0" x1="41.2" y1="29" x2="41.2" y2="37"/>
		<path class="st0" d="M5.2,37V17.6c0-1.5,1.2-2.6,2.6-2.6h7.4"/>
		<line class="st0" x1="37.2" y1="30" x2="37.2" y2="37"/>
		<path class="st0" d="M9.2,37V19.9c0-0.5,0.4-0.9,0.9-0.9h7.1"/>
		<path class="st0" d="M44.2,37h-42v3.6c0,1.3,1.1,2.4,2.4,2.4h37.3c1.3,0,2.4-1.1,2.4-2.4V37z"/>
		<circle class="st6" cx="30.2" cy="18" r="1"/>
		<path class="st6" d="M27.4,7.6C28.2,6,29.2,5,30.2,5c2.6,0,4.6,5.7,4.6,12.8c0,7.1-2.1,12.8-4.6,12.8c-2.6,0-4.6-5.7-4.6-12.8
			c0-2.5,0.3-4.8,0.7-6.8"/>
		<path class="st6" d="M27.8,24.7c-3.6,1.8-6.7,2.2-7.8,0.8c-1.6-2,1.7-7.2,7.4-11.4C33,9.8,38.8,8,40.4,10c1.6,2-1.7,7.2-7.4,11.4
			c-0.9,0.6-1.7,1.2-2.6,1.8"/>
		<path class="st6" d="M39.4,19.7c1.6,2,2.2,3.9,1.5,5c-1.4,2.2-7.3,0.8-13.3-3c-6-3.8-9.7-8.6-8.3-10.8c1.4-2.2,7.3-0.8,13.3,3
			c1.7,1.1,3.3,2.3,4.6,3.5"/>
		<line class="st0" x1="18.2" y1="40" x2="29.2" y2="40"/>
	</g>
</g>
<g id="TEMPLATE">
</g>
</svg>
