<?xml version="1.0" encoding="utf-8"?>
<!-- Generator: Adobe Illustrator 23.1.1, SVG Export Plug-In . SVG Version: 6.00 Build 0)  -->
<svg version="1.1" xmlns="http://www.w3.org/2000/svg" xmlns:xlink="http://www.w3.org/1999/xlink" x="0px" y="0px"
	 viewBox="0 0 48 48" style="enable-background:new 0 0 48 48;" xml:space="preserve">
<style type="text/css">
	.st0{fill:none;stroke:#000000;stroke-width:1.5;stroke-linecap:round;stroke-linejoin:round;stroke-miterlimit:10;}
	.st1{fill:none;stroke:#000000;stroke-width:1.5;}
	.st2{fill:none;stroke:#000000;stroke-width:1.5;stroke-dasharray:3.8571,2.5714;}
	.st3{fill:none;stroke:#000000;stroke-width:1.5;stroke-dasharray:2.8636,1.9091;}
	.st4{fill:none;stroke:#000000;stroke-width:1.5;stroke-dasharray:3,2;}
	.st5{fill:none;stroke:#000000;stroke-width:1.5;stroke-dasharray:2.5,1.6667;}
	.st6{fill:none;stroke:#000000;stroke-width:1.5;stroke-linecap:round;stroke-linejoin:round;}
	.st7{fill:none;stroke:#000000;stroke-width:1.5;stroke-linecap:round;stroke-miterlimit:10;}
	
		.st8{fill:none;stroke:#000000;stroke-width:1.5;stroke-linecap:round;stroke-linejoin:round;stroke-miterlimit:10;stroke-dasharray:2,3;}
	
		.st9{fill:none;stroke:#000000;stroke-width:1.5;stroke-linecap:round;stroke-linejoin:round;stroke-miterlimit:10;stroke-dasharray:3,3;}
	.st10{fill:none;stroke:#000000;stroke-width:1.5;stroke-linecap:round;stroke-linejoin:round;stroke-dasharray:2,3;}
	.st11{fill:none;stroke:#000000;stroke-width:0;stroke-miterlimit:10;}
	.st12{fill:none;stroke:#000000;stroke-width:1.5;stroke-linecap:round;stroke-linejoin:round;stroke-dasharray:1.7375,2.6062;}
	.st13{fill:none;stroke:#000000;stroke-width:1.5;stroke-linecap:round;stroke-linejoin:round;stroke-dasharray:1.7436,2.6153;}
	.st14{fill:none;stroke:#000000;stroke-width:1.5;stroke-linecap:round;stroke-linejoin:round;stroke-dasharray:1.4209,2.1314;}
	.st15{fill:none;stroke:#000000;stroke-width:1.5;stroke-linecap:round;stroke-linejoin:round;stroke-dasharray:1.3568,2.0351;}
	.st16{fill:none;stroke:#000000;stroke-width:1.5;stroke-linecap:round;stroke-linejoin:round;stroke-dasharray:1.5,2.25;}
	
		.st17{fill:none;stroke:#000000;stroke-width:1.5;stroke-linecap:round;stroke-linejoin:round;stroke-miterlimit:10;stroke-dasharray:3,2;}
	.st18{fill:none;stroke:#000000;stroke-width:1.5;stroke-linecap:round;stroke-linejoin:round;stroke-dasharray:1,3;}
	.st19{fill:none;stroke:#000000;stroke-width:1.5;stroke-linecap:round;stroke-linejoin:round;stroke-dasharray:0.9183,2.755;}
	.st20{fill:none;stroke:#000000;stroke-width:1.5;stroke-linecap:round;stroke-linejoin:round;stroke-dasharray:0.868,2.6039;}
	.st21{fill:none;stroke:#000000;stroke-width:1.5;stroke-linecap:round;stroke-linejoin:round;stroke-dasharray:1.9571,2.9357;}
	.st22{fill:none;stroke:#000000;stroke-width:1.5;stroke-linecap:round;stroke-linejoin:round;stroke-dasharray:1.8782,2.8173;}
	.st23{fill:none;stroke:#000000;stroke-width:1.5;stroke-linecap:round;stroke-linejoin:round;stroke-dasharray:2.1456,3.2183;}
	.st24{fill:none;stroke:#000000;stroke-width:1.5;stroke-linecap:round;stroke-linejoin:round;stroke-dasharray:1.909,2.8635;}
	
		.st25{fill:none;stroke:#000000;stroke-width:1.5;stroke-linecap:round;stroke-linejoin:round;stroke-miterlimit:10;stroke-dasharray:2,2;}
	.st26{fill:none;stroke:#000000;stroke-width:1.5;stroke-linecap:round;stroke-linejoin:round;stroke-dasharray:2.047,3.0705;}
	.st27{fill:none;stroke:#000000;stroke-width:1.5;stroke-linecap:round;stroke-linejoin:round;stroke-dasharray:2.1702,3.2552;}
	.st28{fill:none;stroke:#000000;stroke-width:1.5;stroke-linecap:round;stroke-linejoin:round;stroke-dasharray:1.8261,2.7391;}
	
		.st29{fill:none;stroke:#000000;stroke-width:1.5;stroke-linecap:round;stroke-linejoin:round;stroke-miterlimit:10;stroke-dasharray:5.2729,2.6365;}
	
		.st30{fill:none;stroke:#000000;stroke-width:1.5;stroke-linecap:round;stroke-linejoin:round;stroke-miterlimit:10;stroke-dasharray:5,2;}
	
		.st31{fill:none;stroke:#000000;stroke-width:1.5;stroke-linecap:round;stroke-linejoin:round;stroke-miterlimit:10;stroke-dasharray:3,4;}
	
		.st32{fill:none;stroke:#000000;stroke-width:1.5;stroke-linecap:round;stroke-linejoin:round;stroke-miterlimit:10;stroke-dasharray:3.1615,2.1077;}
	.st33{fill:none;stroke:#000000;stroke-width:1.5;stroke-linejoin:round;stroke-miterlimit:10;}
	.st34{fill:#E7BBEB;}
	.st35{fill:#92DFF3;}
	.st36{fill:#C02424;}
	.st37{fill:#231F20;}
	.st38{fill:#ED1C24;}
</style>
<g id="base-size">
</g>
<g id="icon">
</g>
<g id="Layer_3">
	<g>
		<path class="st0" d="M21,37v-6l-7.1-7.1c-0.8-0.8-2-0.8-2.8,0l-0.2,0.2c-0.8,0.8-0.8,2,0,2.8l4.6,4.6"/>
		<path class="st0" d="M9,22L9,22v-9c0-1.1-0.9-2-2-2l0,0c-1.1,0-2,0.9-2,2v11.3c0,2.4,0.9,4.7,2.6,6.4L13,36v1"/>
		<path class="st0" d="M27,37v-6l7.1-7.1c0.8-0.8,2-0.8,2.8,0l0.2,0.2c0.8,0.8,0.8,2,0,2.8l-4.6,4.6"/>
		<path class="st0" d="M39,22L39,22v-9c0-1.1,0.9-2,2-2l0,0c1.1,0,2,0.9,2,2v11.3c0,2.4-0.9,4.7-2.6,6.4L35,36v1"/>
		<circle class="st0" cx="24" cy="16" r="9"/>
		<path class="st0" d="M21,20h4c1.1,0,2-0.9,2-2l0,0c0-1.1-0.9-2-2-2h-2c-1.1,0-2-0.9-2-2l0,0c0-1.1,0.9-2,2-2h4"/>
		<line class="st0" x1="24" y1="10" x2="24" y2="12"/>
		<line class="st0" x1="24" y1="20" x2="24" y2="22"/>
		<polyline class="st0" points="12,41 12,39 22,39 22,41 		"/>
		<polyline class="st0" points="26,41 26,39 36,39 36,41 		"/>
	</g>
</g>
<g id="TEMPLATE">
</g>
</svg>
