<svg fill="#C02424" xmlns="http://www.w3.org/2000/svg" viewBox="0 0 48 48"><title>iStock-951866380 [Converted]</title><g id="icon"><path d="M20.82,35.1a.73.73,0,0,1-.35-.09c-4.29-2.29-6.85-6.25-6.85-10.6a11.28,11.28,0,0,1,3-7.55.76.76,0,0,1,1.06-.07.75.75,0,0,1,.06,1.06,9.86,9.86,0,0,0-2.57,6.56c0,3.79,2.26,7.25,6.05,9.28a.75.75,0,0,1-.35,1.41Z"/><path d="M38,43.75H15a.76.76,0,0,1-.75-.75V39a.76.76,0,0,1,.75-.75H38a.76.76,0,0,1,.75.75v4A.76.76,0,0,1,38,43.75Zm-22.25-1.5h21.5v-2.5H15.75Z"/><path d="M27,39.75H21a.76.76,0,0,1-.75-.75V34A3.75,3.75,0,0,1,24,30.25h0A3.75,3.75,0,0,1,27.75,34v5A.76.76,0,0,1,27,39.75Zm-5.25-1.5h4.5V34A2.25,2.25,0,0,0,24,31.75h0A2.25,2.25,0,0,0,21.75,34Z"/><path d="M25.45,25.74a.71.71,0,0,1-.53-.22L12.62,13.23a.79.79,0,0,1-.22-.53.75.75,0,0,1,.22-.53l4.55-4.55a.74.74,0,0,1,1.06,0l12.29,12.3a.74.74,0,0,1,0,1.06L26,25.52A.74.74,0,0,1,25.45,25.74Zm-11.24-13L25.45,23.93l3.48-3.48L17.7,9.21Z"/><path d="M14.32,12.21a.71.71,0,0,1-.53-.22l-3-3a.75.75,0,0,1,0-1.06.74.74,0,0,1,1.06,0l3,3a.75.75,0,0,1,0,1.06A.74.74,0,0,1,14.32,12.21Z"/><path d="M16.46,10.07a.79.79,0,0,1-.53-.22l-3-3a.74.74,0,0,1,0-1.06.75.75,0,0,1,1.06,0l3,3a.75.75,0,0,1,0,1.06A.79.79,0,0,1,16.46,10.07Z"/><path d="M23.74,27.45a.71.71,0,0,1-.53-.22.74.74,0,0,1,0-1.06l8-8a.75.75,0,0,1,1.06,1.06l-8,8A.74.74,0,0,1,23.74,27.45Z"/><path d="M10,10.31a.79.79,0,0,1-.53-.22A.75.75,0,0,1,9.47,9L14,4.47a.75.75,0,0,1,1.06,1.06l-4.56,4.56A.79.79,0,0,1,10,10.31Z"/><path d="M26,29.75a.74.74,0,0,1-.53-.22.75.75,0,0,1,0-1.06l8-8a.75.75,0,0,1,1.06,1.06l-8,8A.73.73,0,0,1,26,29.75Z"/><path d="M38,35.75H27a.75.75,0,0,1,0-1.5H38a.75.75,0,0,1,0,1.5Z"/></g></svg>