<svg fill="#C02424" xmlns="http://www.w3.org/2000/svg" viewBox="0 0 48 48"><title>iStock-954275144 [Converted]</title><g id="icon"><path d="M21,36.75a.76.76,0,0,1-.75-.75V30.31l-6.87-6.87a1.26,1.26,0,0,0-1.76,0l-.18.18a1.26,1.26,0,0,0,0,1.76L16,30A.75.75,0,0,1,15,31l-4.59-4.59a2.75,2.75,0,0,1,0-3.88l.18-.18a2.75,2.75,0,0,1,3.88,0l7.09,7.09a.75.75,0,0,1,.22.53v6A.76.76,0,0,1,21,36.75Z"/><path d="M13,36.75a.76.76,0,0,1-.75-.75v-.69L7.11,30.17a9.82,9.82,0,0,1-2.86-6.9V12a2.75,2.75,0,0,1,5.5,0v9a.75.75,0,0,1-1.5,0V12a1.25,1.25,0,0,0-2.5,0V23.27a8.32,8.32,0,0,0,2.42,5.84l5.36,5.36a.75.75,0,0,1,.22.53v1A.76.76,0,0,1,13,36.75Z"/><path d="M27,36.75a.76.76,0,0,1-.75-.75V30a.75.75,0,0,1,.22-.53l7.09-7.09a2.75,2.75,0,0,1,3.88,0l.18.18a2.75,2.75,0,0,1,0,3.88L33,31A.75.75,0,0,1,32,30l4.59-4.59a1.26,1.26,0,0,0,0-1.76l-.18-.18a1.26,1.26,0,0,0-1.76,0l-6.87,6.87V36A.76.76,0,0,1,27,36.75Z"/><path d="M24,18.75a.76.76,0,0,1-.75-.75V13a.75.75,0,0,1,1.5,0v5A.76.76,0,0,1,24,18.75Z"/><path d="M17,22.75a.71.71,0,0,1-.32-.07.76.76,0,0,1-.36-1c1.33-2.82,4.13-4.43,7.68-4.43a9,9,0,0,1,7.65,4.38.74.74,0,0,1-.28,1,.75.75,0,0,1-1-.28A7.46,7.46,0,0,0,24,18.75c-2.95,0-5.25,1.3-6.32,3.57A.76.76,0,0,1,17,22.75Z"/><path d="M24,13.75H23A5.76,5.76,0,0,1,17.25,8,.76.76,0,0,1,18,7.25h1A5.76,5.76,0,0,1,24.75,13,.76.76,0,0,1,24,13.75Zm-5.18-5A4.24,4.24,0,0,0,23,12.25h.18A4.24,4.24,0,0,0,19,8.75Z"/><path d="M25,13.75H24a.76.76,0,0,1-.75-.75A5.76,5.76,0,0,1,29,7.25h1a.76.76,0,0,1,.75.75A5.76,5.76,0,0,1,25,13.75Zm-.18-1.5H25a4.24,4.24,0,0,0,4.18-3.5H29A4.24,4.24,0,0,0,24.82,12.25Z"/><path d="M35,36.75a.76.76,0,0,1-.75-.75V35a.75.75,0,0,1,.22-.53l5.36-5.36a8.32,8.32,0,0,0,2.42-5.84V12a1.25,1.25,0,0,0-2.5,0v9a.75.75,0,0,1-1.5,0V12a2.75,2.75,0,0,1,5.5,0V23.27a9.82,9.82,0,0,1-2.86,6.9l-5.14,5.14V36A.76.76,0,0,1,35,36.75Z"/><path d="M22,40.75a.76.76,0,0,1-.75-.75V38.75h-8.5V40a.75.75,0,0,1-1.5,0V38a.76.76,0,0,1,.75-.75H22a.76.76,0,0,1,.75.75v2A.76.76,0,0,1,22,40.75Z"/><path d="M36,40.75a.76.76,0,0,1-.75-.75V38.75h-8.5V40a.75.75,0,0,1-1.5,0V38a.76.76,0,0,1,.75-.75H36a.76.76,0,0,1,.75.75v2A.76.76,0,0,1,36,40.75Z"/></g></svg>