<svg id="Layer_2" data-name="Layer 2" xmlns="http://www.w3.org/2000/svg" viewBox="0 0 250 65.62"><defs><style>.cls-1{fill:#fff;}.cls-2{fill:none;stroke:#fff;}.cls-3{fill:#ad1f2a;}</style></defs><path class="cls-1" d="M.73,21s39.89-.89,62,4.53c6.8,1.63,7.48,5.7,7.55,9.42a30.9,30.9,0,0,0,.42,3.74,12.89,12.89,0,0,0-8.57-9.08C38,21.71.73,21,.73,21Z" transform="translate(-0.02 -0.25)"/><path class="cls-1" d="M77.4,17c1.84-1.61,5.4-8.12-7.81-7C36.54,12.17,0,17.18,0,17.18s51.29-5.19,70.21-3c6.64.76,4.58,5.71,4.28,6.36a21.62,21.62,0,0,1,2.87-3.5Z" transform="translate(-0.02 -0.25)"/><path class="cls-1" d="M51.55,17.16C34.9,16.64.33,19.06.33,19.06s35.52-1.72,62.26,2.2c6.63.88,8.31,4,8.52,6.62a25.32,25.32,0,0,1,1.37-3.78C74.1,19,68.47,16.84,51.55,17.16Z" transform="translate(-0.02 -0.25)"/><path class="cls-1" d="M71.14,40.63s2.64,9.06,14.78,11.68c19,4.28,33.52-6.8,33.52-6.8s-6,13.25-22.92,13.84C75.12,59.46,71.14,40.63,71.14,40.63Z" transform="translate(-0.02 -0.25)"/><path class="cls-1" d="M77.48,17a21.19,21.19,0,0,0-3,3.63c-1.58,4,2.73,7.33,9.69,7.63,22.3-.15,32-10.91,32-10.91L120.84.25s-5.62,10.42-19.68,16.27c-11,4.89-22.34,5.32-23.83,2.95A2,2,0,0,1,77.48,17Z" transform="translate(-0.02 -0.25)"/><path class="cls-1" d="M72.5,24.06c-.82,3.13-1.52,12.6,17.79,11.82C115.8,34.05,132,16.09,132,16.09L125.32,32.3S109.47,47.91,86.55,45C70.81,42.91,70.38,32.43,70.38,32.43A21.45,21.45,0,0,1,72.5,24.06Z" transform="translate(-0.02 -0.25)"/><line class="cls-2" x1="150.25" y1="0.06" x2="150.25" y2="65.62"/><path class="cls-1" d="M25.94,64.08V49.55c0-1-.12-4.8-.17-5.61a4.24,4.24,0,0,0-2.53-3.43h7.3V64.08Z" transform="translate(-0.02 -0.25)"/><path class="cls-1" d="M25,34a2.86,2.86,0,0,1,2.92-2.82,2.8,2.8,0,1,1,.11,5.6A2.88,2.88,0,0,1,25,34Z" transform="translate(-0.02 -0.25)"/><path class="cls-1" d="M5.63,64.08h7a4.77,4.77,0,0,1-2.19-2.76,39.18,39.18,0,0,1-.26-5.63V41.94h4.69V40.5H10.19V38.37c0-5.28,1.87-7.44,5.13-7.44a4.4,4.4,0,0,1,4.16,3.31l3.15-1.76s-2-3-7.38-3S5.62,32.81,5.62,39Z" transform="translate(-0.02 -0.25)"/><path class="cls-1" d="M54.24,45.3c-1.2-2.67-3.08-3.55-4.72-3.55-4.12,0-7.55,3.37-7.55,10C42,58.21,44.7,62,50.27,62a8.54,8.54,0,0,0,6.28-3l1.06,1.18a11.42,11.42,0,0,1-8.93,4c-7.51,0-12.21-4.73-12.21-11.42,0-7.31,5.46-13,13.11-12.55,3.26.17,6.39,1.57,7.76,3.11Z" transform="translate(-0.02 -0.25)"/><rect class="cls-1" x="168.45" y="24.27" width="81.55" height="39.47"/><path class="cls-3" d="M214.08,47a9.87,9.87,0,0,1,.36-1.24,4.56,4.56,0,0,1,.46-1,10.67,10.67,0,0,0-1.66-.49,11.79,11.79,0,0,0-2.45-.27,5.31,5.31,0,0,0-4,1.36,4.56,4.56,0,0,0-1.38,3.28A3.73,3.73,0,0,0,207.17,52a12.82,12.82,0,0,0,2.4,1.24,12.72,12.72,0,0,1,2.29,1.16,2.48,2.48,0,0,1,1.33,2.09c0,1.68-1.4,2.82-3.44,2.82a6,6,0,0,1-2.65-.62,7.12,7.12,0,0,1-1.76-1.19,7.53,7.53,0,0,1-.77,2.47,8,8,0,0,0,2.93.89,10.9,10.9,0,0,0,1.71.15,6.13,6.13,0,0,0,5.1-2.1,4.82,4.82,0,0,0,1.1-3,4,4,0,0,0-.59-2.15c-.48-.74-1.22-1.28-2.93-2.1a19.21,19.21,0,0,1-3.31-1.75,2.36,2.36,0,0,1,1.63-4.27,7.57,7.57,0,0,1,1.63.27A7.42,7.42,0,0,1,214.08,47Z" transform="translate(-0.02 -0.25)"/><path class="cls-3" d="M228.51,46.57c0-.52-.08-.91-.08-1.18a7.08,7.08,0,0,1,.13-1.24,12,12,0,0,1-1.94.13H224l-3,0-1.73,0c.1,1.95.12,2.74.18,4v6.76c0,1.77,0,2.94-.06,3.5s-.1,1.28-.2,2.3c.59-.05,1-.08,1.33-.08s.89,0,1.6.1a47.89,47.89,0,0,1-.18-5.48v-2.1h2.68a24.6,24.6,0,0,1,3.34.25c-.05-.52-.08-.91-.08-1.18A7.74,7.74,0,0,1,228,51a16.62,16.62,0,0,1-3,.22h-3V47.29l0-1h2.72c.69,0,1.79.05,2.71.15C227.67,46.47,228,46.5,228.51,46.57Z" transform="translate(-0.02 -0.25)"/><path class="cls-3" d="M235.44,44.18a9.4,9.4,0,0,1-2.93,0c.1.94.13,1.29.15,2.05v2.49l0,5.88c0,2.34.07,2.84.66,3.77a5.05,5.05,0,0,0,1.51,1.51c1.19.81,2.5,1.11,4.87,1.11a7.93,7.93,0,0,0,4.82-1.16c1.78-1.21,2.16-2.3,2.16-6.29l0-3.88c0-.32,0-1.16.05-2.52,0-1,0-1.77,0-2.17,0-.17.05-.42.08-.76-.59,0-1,.1-1.3.1s-.72-.05-1.28-.1c.1.86.15,1.21.18,2,.08,1,.1,2.17.1,3.48v3.85c0,2.71-.08,3.3-.61,4.07a3.65,3.65,0,0,1-1,.84,5.69,5.69,0,0,1-3.09.71c-1.81,0-3.49-.64-4.13-1.55-.51-.74-.53-1-.56-3.6v-5c0-.27,0-.74.05-1.36s0-1,0-1.16C235.29,45.51,235.32,45.14,235.44,44.18Z" transform="translate(-0.02 -0.25)"/></svg>